<svg xmlns="http://www.w3.org/2000/svg" viewBox="0 0 980 420" font-family="Inter, Arial, sans-serif">
  <rect width="980" height="420" fill="#f8fafc"/>
  <text x="40" y="42" fill="#1f2a44" font-size="20" font-weight="800">pi-cc architecture</text>
  <g font-size="15" font-weight="700">
    <rect x="54" y="104" width="168" height="92" rx="16" fill="#fffefa" stroke="#d8ded8"/>
    <text x="138" y="140" text-anchor="middle" fill="#111827">Assistant</text>
    <text x="138" y="166" text-anchor="middle" fill="#64748b">latest message</text>
    <rect x="286" y="104" width="168" height="92" rx="16" fill="#eff6ff" stroke="#bfdbfe"/>
    <text x="370" y="140" text-anchor="middle" fill="#1e3a8a">messages.ts</text>
    <text x="370" y="166" text-anchor="middle" fill="#475569">read text</text>
    <rect x="518" y="104" width="168" height="92" rx="16" fill="#f5f3ff" stroke="#ddd6fe"/>
    <text x="602" y="140" text-anchor="middle" fill="#4c1d95">code-blocks.ts</text>
    <text x="602" y="166" text-anchor="middle" fill="#475569">extract fences</text>
    <rect x="750" y="104" width="168" height="92" rx="16" fill="#ecfdf5" stroke="#a7f3d0"/>
    <text x="834" y="140" text-anchor="middle" fill="#065f46">ui.ts</text>
    <text x="834" y="166" text-anchor="middle" fill="#475569">widget preview</text>
  </g>
  <g stroke="#94a3b8" stroke-width="3" stroke-linecap="round" stroke-linejoin="round" fill="none">
    <path d="M226 150h52"/>
    <path d="M266 140l12 10-12 10"/>
    <path d="M458 150h52"/>
    <path d="M498 140l12 10-12 10"/>
    <path d="M690 150h52"/>
    <path d="M730 140l12 10-12 10"/>
  </g>
  <rect x="166" y="274" width="210" height="72" rx="16" fill="#111827"/>
  <text x="271" y="304" text-anchor="middle" fill="#ffffff" font-size="17" font-weight="800">/cc [n]</text>
  <text x="271" y="328" text-anchor="middle" fill="#cbd5e1" font-size="14">copyToClipboard</text>
  <rect x="410" y="274" width="210" height="72" rx="16" fill="#111827"/>
  <text x="515" y="304" text-anchor="middle" fill="#ffffff" font-size="17" font-weight="800">/vc [n]</text>
  <text x="515" y="328" text-anchor="middle" fill="#cbd5e1" font-size="14">open editor</text>
  <rect x="654" y="274" width="210" height="72" rx="16" fill="#111827"/>
  <text x="759" y="304" text-anchor="middle" fill="#ffffff" font-size="17" font-weight="800">/cc-help</text>
  <text x="759" y="328" text-anchor="middle" fill="#cbd5e1" font-size="14">show commands</text>
  <path d="M834 202c0 50-563 22-563 66" stroke="#94a3b8" stroke-width="3" fill="none" stroke-linecap="round"/>
  <path d="M834 202c0 50-319 22-319 66" stroke="#94a3b8" stroke-width="3" fill="none" stroke-linecap="round"/>
  <path d="M834 202c0 50-75 22-75 66" stroke="#94a3b8" stroke-width="3" fill="none" stroke-linecap="round"/>
  <text x="490" y="386" text-anchor="middle" fill="#64748b" font-size="15">Session event hooks keep the widget synchronized with the latest assistant response.</text>
</svg>
