<svg width="1200" height="760" viewBox="0 0 1200 760" fill="none" xmlns="http://www.w3.org/2000/svg">
  <rect width="1200" height="760" rx="36" fill="#F8F5FF"/>
  <text x="70" y="88" fill="#221A14" font-family="Inter, Arial" font-size="42" font-weight="850">Block Builder schema model</text>
  <text x="70" y="126" fill="#6B625C" font-family="Inter, Arial" font-size="22">CMS config describes the component structure. React renders it from typed GraphQL content.</text>
  <rect x="70" y="170" width="1060" height="500" rx="28" fill="white" stroke="#E5DAF7" stroke-width="2"/>
  <rect x="115" y="220" width="210" height="94" rx="22" fill="#EFE7FF" stroke="#D8C8FF"/>
  <text x="220" y="257" fill="#6D28D9" font-family="Inter, Arial" font-size="24" font-weight="900" text-anchor="middle">Experience</text>
  <text x="220" y="288" fill="#6B625C" font-family="Inter, Arial" font-size="16" text-anchor="middle">entire component</text>
  <path d="M325 267 H425" stroke="#B79AF5" stroke-width="4" stroke-linecap="round"/>
  <path d="M415 255 L428 267 L415 279" stroke="#B79AF5" stroke-width="4" stroke-linecap="round" stroke-linejoin="round"/>
  <rect x="445" y="195" width="210" height="70" rx="18" fill="#EAF1FF" stroke="#BED2FF"/>
  <text x="550" y="238" fill="#2563EB" font-family="Inter, Arial" font-size="21" font-weight="850" text-anchor="middle">DEFAULT</text>
  <rect x="445" y="282" width="210" height="70" rx="18" fill="#E8F8F2" stroke="#B8EBD8"/>
  <text x="550" y="325" fill="#0F9F6E" font-family="Inter, Arial" font-size="21" font-weight="850" text-anchor="middle">REWARDS_ADDED</text>
  <rect x="445" y="369" width="210" height="70" rx="18" fill="#FFF1E7" stroke="#FFD2B3"/>
  <text x="550" y="412" fill="#F97316" font-family="Inter, Arial" font-size="21" font-weight="850" text-anchor="middle">REWARDS_DECLINED</text>
  <path d="M655 230 H735" stroke="#B79AF5" stroke-width="4" stroke-linecap="round"/>
  <path d="M725 218 L738 230 L725 242" stroke="#B79AF5" stroke-width="4" stroke-linecap="round" stroke-linejoin="round"/>
  <rect x="760" y="195" width="310" height="300" rx="22" fill="#FFFDF9" stroke="#EADFD4"/>
  <text x="915" y="238" fill="#221A14" font-family="Inter, Arial" font-size="24" font-weight="900" text-anchor="middle">Screen blocks</text>
  <rect x="800" y="270" width="230" height="42" rx="12" fill="#F4ECFF"/>
  <text x="915" y="297" fill="#6D28D9" font-family="Inter, Arial" font-size="16" font-weight="800" text-anchor="middle">Header: logo / gem / promo</text>
  <rect x="800" y="326" width="230" height="42" rx="12" fill="#F4ECFF"/>
  <text x="915" y="353" fill="#6D28D9" font-family="Inter, Arial" font-size="16" font-weight="800" text-anchor="middle">Content: title / choices / terms</text>
  <rect x="800" y="382" width="230" height="42" rx="12" fill="#F4ECFF"/>
  <text x="915" y="409" fill="#6D28D9" font-family="Inter, Arial" font-size="16" font-weight="800" text-anchor="middle">Footer: legal / CTAs</text>
  <rect x="800" y="438" width="230" height="42" rx="12" fill="#F4ECFF"/>
  <text x="915" y="465" fill="#6D28D9" font-family="Inter, Arial" font-size="16" font-weight="800" text-anchor="middle">Styles: rows / spacing / bg</text>
  <rect x="115" y="540" width="955" height="74" rx="20" fill="#1F1630"/>
  <text x="150" y="585" fill="#C4B5FD" font-family="Menlo, monospace" font-size="21">Content/layout → Block Builder schema</text>
  <text x="570" y="585" fill="#86EFAC" font-family="Menlo, monospace" font-size="21">Dynamic values → Checkout state</text>
</svg>
